# xmcd
#
# Track frame offsets:
#	150
#	11686
#	26139
#	39321
#	57042
#	68596
#	79378
#	94149
#	107546
#	121935
#	138344
#	149859
#	163531
#	176870
#	187724
#	202187
#	218112
#	238159
#	256578
#	268612
#	282781
#	293753
#	307280
#
# Disc length: 4275 seconds
#
# Revision: 0
# Processed by: cddbd v1.5.2PL0 Copyright (c) Steve Scherf et al.
# Submitted via: audiograbber 1.83.01
#
DISCID=5510b117
DTITLE=Vincente Fernandez - Mexicanisimo
DYEAR=1900
DGENRE=Südamerika
TTITLE0=El rey
TTITLE1=La misma
TTITLE2=Tu camino y el mio
TTITLE3=Por si no te vuelco a ver
TTITLE4=El polverete
TTITLE5=Ni en defensa propia
TTITLE6=Guadelajara
TTITLE7=Ay amigo
TTITLE8=Caballo Golondrino
TTITLE9=Aun se acuerda de mi
TTITLE10=La estrellita
TTITLE11=La ruleta
TTITLE12=Los mandados
TTITLE13=No me se rajar
TTITLE14=Corrido de Juan armenta
TTITLE15=El moro de compas
TTITLE16=Chapala
TTITLE17=Golondrina Presumida
TTITLE18=La yehua palomina
TTITLE19=Como paloma errante
TTITLE20=Si tu te vas
TTITLE21=Las botas de charro
TTITLE22=Vicente Fernandez
EXTD=
EXTT0=
EXTT1=
EXTT2=
EXTT3=
EXTT4=
EXTT5=
EXTT6=
EXTT7=
EXTT8=
EXTT9=
EXTT10=
EXTT11=
EXTT12=
EXTT13=
EXTT14=
EXTT15=
EXTT16=
EXTT17=
EXTT18=
EXTT19=
EXTT20=
EXTT21=
EXTT22=
PLAYORDER=
